<?xml version="1.0" encoding="UTF-8" standalone="no"?>
<!-- Created with Inkscape (http://www.inkscape.org/) -->

<svg
   version="1.1"
   id="svg1"
   width="2698.6667"
   height="974.66669"
   viewBox="0 0 2698.6667 974.66669"
   sodipodi:docname="boxBottom.svg"
   xml:space="preserve"
   inkscape:version="1.4 (e7c3feb100, 2024-10-09)"
   xmlns:inkscape="http://www.inkscape.org/namespaces/inkscape"
   xmlns:sodipodi="http://sodipodi.sourceforge.net/DTD/sodipodi-0.dtd"
   xmlns="http://www.w3.org/2000/svg"
   xmlns:svg="http://www.w3.org/2000/svg"><defs
     id="defs1" /><sodipodi:namedview
     id="namedview1"
     pagecolor="#505050"
     bordercolor="#ffffff"
     borderopacity="1"
     inkscape:showpageshadow="0"
     inkscape:pageopacity="0"
     inkscape:pagecheckerboard="1"
     inkscape:deskcolor="#505050"
     inkscape:zoom="0.35355339"
     inkscape:cx="1337.846"
     inkscape:cy="405.87929"
     inkscape:window-width="1918"
     inkscape:window-height="1007"
     inkscape:window-x="0"
     inkscape:window-y="0"
     inkscape:window-maximized="1"
     inkscape:current-layer="g1" /><g
     inkscape:groupmode="layer"
     inkscape:label="Image"
     id="g1"
     transform="matrix(1.0080916,0,0,1,-12.448938,12.218073)"><g
       id="g9"
       inkscape:label="background"
       transform="matrix(1.0359242,0,0,1.0379269,-2.1012471,-260.33061)"
       style="fill:#f9e57e;fill-opacity:1;stroke:none;stroke-opacity:1"><path
         id="path5"
         style="fill:#f9e57e;fill-opacity:1;stroke:none;stroke-width:1.21056;stroke-opacity:1"
         d="M 37.767578,550.49609 C 36.19056,778.51469 111.31833,886.3803 302.42383,926.5957 c 16.24026,3.41751 32.9535,6.26824 37.13867,6.33594 74.34738,1.20137 530.15135,0.66215 982.2569,0.67201 -0.016,-7.04335 -1.2666,-14.08672 -1.2314,-24.36837 -0.8089,-36.61895 -0.3827,-71.05888 -0.7368,-111.96966 1.3881,-42.18635 -0.7536,-84.37961 0.3358,-127.67216 0.7696,-39.94736 139.11,-68.02914 139.7009,-107.97933 C 1460.4917,530.11101 37.828111,541.7437 37.767578,550.49609 Z"
         sodipodi:nodetypes="ssccccccs"
         inkscape:label="left" /><path
         id="path5-2"
         style="fill:#f9e57e;fill-opacity:1;stroke:none;stroke-width:1.21056;stroke-opacity:1"
         d="m 2588.213,550.45224 c -10.5678,227.77608 -73.2968,335.92679 -264.4023,376.14219 -16.2403,3.41751 -32.9535,6.26824 -37.1387,6.33594 -74.3474,1.20137 -530.1514,0.66215 -982.2569,0.67201 0.016,-7.04335 1.2666,-14.08672 1.2314,-24.36837 0.8089,-36.61895 0.3827,-71.05888 0.7368,-111.96966 -1.3881,-42.18635 0.7536,-84.37961 -0.3358,-127.67216 -0.7696,-39.94736 -12.9497,-83.68535 -13.5406,-123.63554 1.9307,-3.78706 1296.3264,-8.87523 1295.7061,4.49559 z"
         sodipodi:nodetypes="ssccccccs"
         inkscape:label="right" /><rect
         style="fill:#f9e57e;fill-opacity:1;stroke:none;stroke-width:0;stroke-linecap:round;stroke-dasharray:none;stroke-opacity:1;paint-order:stroke fill markers"
         id="rect10"
         width="2550.4399"
         height="10.26005"
         x="37.770081"
         y="540.22784"
         ry="0"
         rx="0" /></g></g></svg>
